<svg width="270" height="32" viewBox="0 0 270 32" fill="none" xmlns="http://www.w3.org/2000/svg"><g clip-path="url(#clip0_3492_253654)"><path d="M95.315 17.803v-6.978h3.364v6.272c0 1.162.52 1.807 1.598 1.807 1.163 0 1.869-.871 1.869-2.139v-5.94h3.385v10.633h-3.241v-1.31h-.062c-.769 1.04-1.703 1.62-3.178 1.62-2.45 0-3.739-1.6-3.739-3.967l.004.002zm11.631-6.978h3.261v1.454h.062c.79-1.142 1.808-1.766 3.283-1.766 2.325 0 3.696 1.662 3.696 4.03v6.916h-3.385v-6.23c0-1.122-.561-1.89-1.661-1.89s-1.868.934-1.868 2.243v5.877h-3.385V10.825h-.003zm11.153 5.317c0-3.323 1.91-5.629 4.652-5.629 1.496 0 2.346.624 2.97 1.517h.063V6.61h3.385v14.848h-3.24v-1.433h-.042c-.643 1.1-1.745 1.766-3.136 1.766-2.721 0-4.652-2.097-4.652-5.65zm7.767 0c0-1.787-.727-3.073-2.201-3.073-1.351 0-2.139 1.246-2.139 3.032 0 1.787.789 3.012 2.097 3.012 1.412 0 2.243-1.225 2.243-2.97v-.002zm4.237-.022c0-3.177 2.222-5.607 5.463-5.607 1.516 0 2.72.499 3.634 1.33 1.267 1.163 1.889 3.012 1.868 5.172h-7.643c.208 1.432.997 2.325 2.388 2.325.893 0 1.475-.394 1.766-1.06h3.303c-.229.955-.851 1.869-1.787 2.514-.892.623-1.973.976-3.322.976-3.51 0-5.67-2.43-5.67-5.65zm7.539-1.12c-.126-1.267-.914-2.078-2.015-2.078-1.288 0-1.953.81-2.181 2.078h4.196zm4.362-4.175h3.24v1.662h.063c.748-1.268 1.619-1.829 2.907-1.829.312 0 .52.021.665.084v2.907h-.084c-2.076-.291-3.406.727-3.406 3.033v4.777h-3.385V10.825zm7.103 7.185h3.198c.126 1.06.832 1.58 1.952 1.58 1.018 0 1.662-.375 1.662-1.06 0-.956-1.288-1.06-2.7-1.31-1.85-.311-3.821-.81-3.821-3.302 0-2.244 2.076-3.406 4.589-3.406 3.012 0 4.631 1.309 4.797 3.406h-3.115c-.123-.956-.768-1.247-1.703-1.247-.831 0-1.474.312-1.474.977 0 .747 1.204.85 2.555 1.1 1.869.311 4.07.789 4.07 3.51 0 2.325-2.057 3.531-4.839 3.531-3.114 0-5.067-1.433-5.171-3.78v.001zm10.529-1.848c0-3.198 2.202-5.628 5.566-5.628 2.886 0 4.735 1.682 5.046 4.07h-3.261c-.208-.955-.79-1.579-1.745-1.579-1.454 0-2.181 1.205-2.181 3.136s.727 3.094 2.181 3.094c1.06 0 1.703-.624 1.849-1.829h3.24c-.083 2.451-2.035 4.361-5.046 4.361-3.426 0-5.649-2.43-5.649-5.628v.003zm11.091 0c0-3.198 2.285-5.628 5.691-5.628 3.406 0 5.67 2.43 5.67 5.628 0 3.199-2.243 5.629-5.67 5.629s-5.691-2.43-5.691-5.629zm7.933 0c0-1.93-.79-3.24-2.265-3.24-1.474 0-2.243 1.31-2.243 3.24 0 1.932.769 3.22 2.243 3.22 1.475 0 2.265-1.288 2.265-3.22zm4.362-5.337h3.24v1.662h.063c.748-1.268 1.619-1.829 2.907-1.829.312 0 .52.021.664.084v2.907h-.083c-2.078-.291-3.406.727-3.406 3.033v4.777h-3.385V10.825zm7.061 5.295c0-3.177 2.222-5.607 5.463-5.607 1.516 0 2.72.499 3.634 1.33 1.267 1.163 1.889 3.012 1.868 5.172h-7.643c.208 1.432.997 2.325 2.388 2.325.893 0 1.475-.394 1.766-1.06h3.303c-.229.955-.851 1.869-1.787 2.514-.892.623-1.973.976-3.322.976-3.51 0-5.67-2.43-5.67-5.65zm7.539-1.12c-.126-1.267-.914-2.078-2.015-2.078-1.288 0-1.953.81-2.181 2.078h4.196zm3.884 1.142c0-3.323 1.911-5.629 4.653-5.629 1.495 0 2.346.624 2.97 1.517h.062V6.61h3.385v14.848h-3.24v-1.433h-.042c-.643 1.1-1.745 1.766-3.135 1.766-2.721 0-4.653-2.097-4.653-5.65zm7.767 0c0-1.787-.727-3.073-2.201-3.073-1.349 0-2.139 1.246-2.139 3.032 0 1.787.79 3.012 2.097 3.012 1.412 0 2.243-1.225 2.243-2.97v-.002zm-92.034 8.572H95.318v2.891h21.921v-2.891zM89 0H57v32h32V0z" fill="#3C4043"/><path d="M63.5 16a2.438 2.438 0 012.438-2.438h1.849v-1.381H65.92A3.824 3.824 0 0062.102 16a3.823 3.823 0 003.82 3.82h3.59c.201 0 .362-.199.362-.363v-7.072a.83.83 0 01.608-.817c.31-.085.746 0 1.037.495l2.24 3.861 2.166 3.734c.113.192.267.283.415.243.093-.026.2-.114.2-.285v-7.23c0-.39.245-.718.607-.818.309-.083.741.002 1.032.495l2.076 3.578c1.136 1.956 2.308 3.979 2.33 4.017.113.192.27.283.415.243.094-.026.201-.114.201-.285v-9.368h-1.384v5.577s-2.313-3.983-2.419-4.163c-1.468-2.495-4.242-1.464-4.242.683v3.48s-2.312-3.983-2.418-4.163c-1.468-2.495-4.242-1.464-4.242.683v5.704a.38.38 0 01-.383.389h-2.177A2.438 2.438 0 0163.498 16h.002z" fill="#fff"/><path d="M83.755 10.248v9.367a.833.833 0 01-.824.847c-.276 0-.593-.136-.822-.524l-2.331-4.02-2.075-3.575c-.112-.191-.266-.283-.411-.242-.092.025-.2.114-.2.284v7.23c0 .39-.244.719-.607.818-.31.084-.746 0-1.038-.495-.01-.02-.866-1.492-2.167-3.737l-2.239-3.858c-.112-.191-.268-.283-.415-.242a.281.281 0 00-.2.284v7.072a.938.938 0 01-.916.914h-3.59c-2.41 0-4.37-1.96-4.37-4.371 0-2.41 1.96-4.37 4.37-4.37h1.865v-1.382h-1.864a5.752 5.752 0 000 11.504h3.625c1.378 0 2.264-.807 2.262-2.296v-3.28l2.419 4.163c1.468 2.494 4.242 1.463 4.242-.684v-3.48s2.312 3.983 2.418 4.163c1.469 2.495 4.242 1.464 4.242-.683v-9.407h-1.378.004z" fill="#fff"/></g><defs><clipPath id="clip0_3492_253654"><path fill="#fff" transform="translate(57)" d="M0 0h155.576v32H0z"/></clipPath></defs></svg>