<svg width="270" height="32" viewBox="0 0 270 32" fill="none" xmlns="http://www.w3.org/2000/svg"><g clip-path="url(#clip0_3492_253662)" fill="#3C4043"><path d="M59.549 28.18V3.8c0-1.265.288-2.218.867-2.85.576-.634 1.326-.95 2.238-.95.913 0 1.707.312 2.295.94.584.625.876 1.578.876 2.859V28.18c0 1.281-.292 2.238-.876 2.87-.584.633-1.35.949-2.295.949-.944 0-1.646-.32-2.23-.96-.583-.641-.875-1.594-.875-2.86zM230.033 32c-8.818 0-15.99-7.172-15.99-15.99 0-8.818 7.172-15.99 15.99-15.99 8.818 0 15.99 7.172 15.99 15.99 0 8.818-7.172 15.99-15.99 15.99m0-25.51c-5.25 0-9.519 4.27-9.519 9.52s4.269 9.515 9.519 9.515 9.515-4.269 9.515-9.515-4.269-9.52-9.515-9.52M158.249 32c-8.818 0-15.99-7.172-15.99-15.99 0-8.818 7.172-15.99 15.99-15.99 8.818 0 15.99 7.172 15.99 15.99 0 8.818-7.172 15.99-15.99 15.99m0-25.51c-5.246 0-9.515 4.27-9.515 9.52s4.269 9.515 9.515 9.515 9.515-4.269 9.515-9.515-4.269-9.52-9.515-9.52m50.67 9.512c0-3.535-1.152-6.799-3.094-9.446-2.826-3.852-7.33-6.394-12.422-6.544-.158-.004-.316-.012-.474-.012l-8.032.012c-1.37 0-2.363.312-2.975.937-.617.624-.921 1.634-.921 3.028v24.054c0 1.395.308 2.404.921 3.028.612.625 1.605.937 2.975.937l8.032.008c.158 0 .316-.008.474-.012 5.096-.15 9.596-2.692 12.422-6.544a15.912 15.912 0 003.094-9.442v-.004zm-14.859 9.446a40.46 40.46 0 01-2.502.061h-4.2V6.491h4.2c.896 0 1.728.008 2.502.06a9.523 9.523 0 016.702 4.059 9.466 9.466 0 011.682 5.372v.04a9.428 9.428 0 01-1.682 5.376 9.513 9.513 0 01-6.702 4.054M133.202.142a2.737 2.737 0 00-3.11 1.135l-9.641 14.689-9.645-14.689a2.744 2.744 0 00-3.109-1.135c-1.168.365-1.967 1.463-1.967 2.712V28.96c0 1.565 1.241 2.838 2.774 2.838 1.532 0 2.773-1.269 2.773-2.838V12.171l6.843 10.427.012.02.008.013s.017.024.029.036c.044.061.085.126.134.183.02.028.044.048.064.073.037.044.078.089.118.13.037.036.077.072.114.109.028.024.056.053.085.077a3.811 3.811 0 00.223.166c.061.04.125.077.19.118a.368.368 0 00.053.032c.049.028.097.049.146.073.28.13.576.215.872.243h.004c.06.004.117.008.174.008h.195c.056 0 .117 0 .174-.008h.004c.296-.032.592-.113.872-.243.048-.024.101-.045.146-.073a.225.225 0 00.052-.032c.065-.037.126-.073.187-.118 0 0 .004 0 .008-.004l.049-.037c.056-.04.113-.08.166-.125.028-.024.056-.053.085-.077.036-.037.077-.07.113-.106.041-.04.077-.085.118-.13.02-.024.045-.048.065-.072.048-.061.093-.122.134-.183.008-.012.02-.024.028-.036l.008-.012s.008-.013.016-.02l6.844-10.428v16.788c0 1.565 1.24 2.838 2.773 2.838 1.532 0 2.773-1.269 2.773-2.838V2.854c0-1.249-.799-2.351-1.966-2.712M96.288 31.027H75.551c-1.09 0-2.303-.681-2.753-1.743-.45-1.063-.54-2.506.426-3.657l16.963-19.68H76.175c-1.532 0-2.773-1.325-2.773-2.963 0-1.638 1.24-2.635 2.773-2.635h18.897c1.09 0 2.222.174 3.207 1.252.9.99.863 3.118-.146 4.391L81.746 25.104h14.546c1.533 0 2.648 1.326 2.648 2.963 0 1.638-1.115 2.964-2.648 2.964M38.876 32c-4.601 0-8.773-1.824-11.749-5.137C24.504 23.944 23 20.101 23 16.314 23 4.427 32.88 0 39.107 0c6.228 0 10.618 3.004 10.805 3.13 1.378.936 1.747 2.826.823 4.224a2.983 2.983 0 01-4.156.844c-.08-.053-3.267-2.109-7.472-2.109-3.904 0-9.284 2.575-9.284 10.225 0 4.35 3.236 9.483 9.17 9.483 3.342 0 5.689-.888 7.051-1.76v-4.524h-4.626c-1.658 0-3.004-1.362-3.004-3.045 0-1.682 1.346-3.044 3.004-3.044h7.63c1.659 0 3.005 1.362 3.005 3.044v9.053a3.07 3.07 0 01-.913 2.186C49.125 29.689 44.702 32 38.876 32"/></g><defs><clipPath id="clip0_3492_253662"><path fill="#fff" transform="translate(23)" d="M0 0h223.023v32H0z"/></clipPath></defs></svg>